<?xml version="1.0" standalone="no"?>
<!DOCTYPE svg PUBLIC "-//W3C//DTD SVG 20010904//EN"
 "http://www.w3.org/TR/2001/REC-SVG-20010904/DTD/svg10.dtd">
<svg version="1.0" xmlns="http://www.w3.org/2000/svg"
 width="807.000000pt" height="807.000000pt" viewBox="0 0 807.000000 807.000000"
 preserveAspectRatio="xMidYMid meet">
<metadata>
Created by potrace 1.14, written by Peter Selinger 2001-2017
</metadata>
<g transform="translate(0.000000,807.000000) scale(0.100000,-0.100000)"
fill="#000000" stroke="none">
<path d="M3788 8066 c-1 -2 -43 -7 -92 -10 -114 -9 -213 -21 -331 -41 -16 -3
-43 -7 -60 -10 -16 -3 -41 -8 -55 -11 -14 -3 -36 -7 -50 -10 -30 -6 -107 -24
-135 -31 -11 -3 -27 -6 -35 -8 -8 -1 -22 -4 -30 -7 -8 -3 -78 -24 -155 -47
-194 -59 -392 -136 -573 -225 -51 -25 -94 -46 -97 -46 -2 0 -43 -23 -92 -51
-48 -29 -108 -63 -133 -77 -25 -14 -46 -29 -48 -34 -2 -4 -8 -8 -14 -8 -9 0
-207 -132 -241 -161 -7 -5 -48 -37 -92 -71 -198 -152 -439 -382 -590 -564 -22
-26 -45 -52 -50 -58 -20 -22 -115 -146 -115 -151 0 -3 -8 -14 -17 -24 -29 -32
-36 -41 -116 -163 -42 -65 -77 -122 -77 -127 0 -5 -4 -11 -8 -13 -11 -4 -86
-139 -165 -296 -52 -104 -193 -436 -202 -476 -1 -6 -4 -18 -7 -26 -58 -159
-131 -468 -163 -685 -18 -123 -25 -179 -32 -265 -10 -115 -10 -579 0 -670 4
-36 9 -90 12 -120 3 -30 8 -71 12 -90 3 -19 7 -44 8 -55 1 -11 6 -42 10 -70 5
-27 10 -54 10 -60 8 -65 85 -375 125 -500 86 -270 263 -656 399 -870 35 -55
70 -111 78 -125 14 -24 129 -185 175 -244 198 -252 400 -459 633 -649 55 -44
102 -84 105 -87 3 -3 21 -17 40 -30 19 -13 37 -27 40 -30 13 -15 315 -210 326
-210 7 0 14 -4 16 -8 4 -11 10 -14 224 -122 93 -47 196 -97 229 -110 33 -13
65 -27 71 -32 6 -4 14 -5 17 -1 4 3 7 1 7 -5 0 -7 3 -11 8 -10 4 1 23 -4 42
-11 19 -8 37 -15 40 -15 3 -1 64 -21 135 -44 181 -59 293 -91 375 -105 14 -3
59 -12 100 -20 83 -17 109 -21 255 -42 167 -24 278 -30 540 -29 219 1 360 6
445 19 14 2 43 6 65 9 22 3 58 8 80 11 22 3 51 7 65 10 14 3 39 7 55 10 17 3
44 8 60 12 17 4 38 8 48 9 9 1 19 3 22 4 6 3 5 3 60 15 22 4 45 9 50 11 6 2
20 5 33 8 80 18 375 112 427 136 11 5 52 21 90 36 95 37 381 170 395 184 3 3
30 18 60 34 30 17 84 48 121 70 36 23 72 46 81 51 111 69 377 268 448 335 9 8
47 42 86 76 56 49 209 202 284 283 128 138 420 528 420 560 0 5 3 11 8 13 16
7 257 450 261 480 1 5 12 32 25 60 12 29 29 69 36 88 7 19 19 49 25 65 23 55
47 120 50 135 2 8 14 47 28 85 13 39 25 73 26 78 0 4 1 8 2 10 0 1 2 9 4 17 2
8 15 60 30 115 14 55 28 111 30 125 2 14 9 48 15 75 6 28 13 64 16 80 5 33 15
92 19 115 2 9 6 40 10 70 3 30 8 69 10 85 20 155 27 612 12 775 -4 47 -10 104
-12 126 -2 23 -6 57 -8 75 -11 69 -20 134 -22 149 -1 8 -5 26 -9 40 -3 14 -8
39 -10 55 -2 17 -7 38 -11 47 -4 9 -4 22 0 28 3 5 2 10 -2 10 -5 0 -9 8 -10
18 0 9 -3 26 -6 37 -3 11 -12 47 -20 80 -25 99 -47 177 -63 225 -9 25 -17 52
-19 60 -3 14 -37 108 -58 160 -6 14 -11 30 -12 36 -2 6 -11 29 -20 50 -33 75
-44 99 -45 106 -3 15 -134 275 -173 343 -22 39 -45 79 -51 90 -6 11 -28 46
-49 78 -20 31 -37 60 -37 63 0 2 -5 10 -10 17 -6 7 -32 44 -59 82 -67 95 -105
146 -176 235 -122 154 -301 341 -459 481 -27 24 -60 53 -72 64 -13 11 -39 34
-60 50 -20 17 -43 36 -50 43 -7 6 -17 12 -23 12 -6 0 -11 3 -11 8 0 4 -17 18
-38 32 -20 14 -43 31 -51 39 -20 19 -287 194 -352 230 -62 35 -407 210 -414
210 -3 0 -27 10 -53 21 -97 44 -437 159 -437 149 0 -1 -9 2 -20 8 -11 6 -36
14 -57 17 -20 3 -47 10 -60 16 -20 8 -127 32 -208 46 -14 2 -36 7 -50 9 -48
10 -65 13 -110 19 -25 3 -54 8 -65 10 -11 2 -51 7 -90 11 -38 4 -90 9 -115 12
-50 5 -576 13 -582 9z m232 -645 c7 -1 11 -578 12 -1693 l3 -1693 1685 0 c989
1 1688 -3 1691 -8 12 -16 -19 -482 -32 -482 -1 0 -3 -11 -4 -25 -3 -39 -34
-201 -44 -237 -5 -18 -8 -33 -5 -33 3 0 0 -8 -5 -17 -5 -10 -11 -31 -14 -48
-3 -16 -17 -68 -32 -115 -14 -47 -28 -92 -30 -100 -11 -38 -45 -130 -68 -183
-15 -31 -26 -58 -26 -60 2 -17 -128 -283 -185 -380 -49 -83 -126 -206 -138
-222 -5 -5 -39 -53 -77 -105 -38 -52 -83 -111 -99 -130 -17 -19 -51 -60 -77
-90 -88 -103 -304 -310 -410 -395 -28 -21 -52 -42 -55 -46 -10 -13 -267 -189
-300 -206 -19 -10 -36 -21 -38 -25 -2 -4 -24 -17 -50 -29 -26 -13 -49 -26 -52
-29 -10 -13 -331 -165 -400 -190 -19 -6 -44 -16 -55 -21 -33 -14 -136 -49
-210 -70 -143 -42 -315 -83 -396 -93 -19 -3 -34 -5 -34 -6 0 -1 -9 -3 -20 -4
-11 -2 -41 -6 -67 -9 -151 -21 -236 -27 -433 -31 -82 -1 -160 1 -172 6 -13 4
-25 3 -28 -3 -4 -5 -11 -6 -17 -3 -6 4 -34 8 -63 9 -50 3 -144 12 -181 19 -11
2 -41 7 -69 10 -27 4 -63 9 -80 12 -53 8 -178 36 -235 52 -30 8 -64 16 -75 18
-65 8 -401 132 -541 200 -38 19 -75 34 -81 34 -6 0 -13 4 -15 8 -3 7 -73 46
-155 86 -13 6 -23 14 -23 19 0 4 -4 7 -10 7 -9 0 -198 117 -210 130 -3 3 -22
16 -42 30 -21 14 -38 28 -38 33 0 4 -4 7 -10 7 -5 0 -18 7 -27 15 -10 8 -47
38 -83 67 -112 91 -132 109 -265 243 -133 133 -178 183 -262 292 -26 34 -59
76 -73 94 -14 17 -27 37 -29 43 -2 6 -10 16 -17 23 -19 19 -164 250 -164 262
0 5 -3 11 -7 13 -5 1 -24 35 -43 73 -19 39 -38 72 -42 73 -5 2 -8 10 -8 17 0
7 -9 30 -19 52 -51 101 -69 142 -64 147 4 3 1 6 -5 6 -7 0 -11 3 -10 8 2 6
-30 99 -51 147 -23 51 -106 338 -116 400 -4 22 -22 115 -30 155 -3 14 -8 41
-10 60 -2 19 -8 67 -14 105 -5 39 -9 77 -9 85 0 8 -4 51 -8 95 -12 142 -6 527
10 611 2 11 7 45 10 75 3 30 8 64 10 75 4 19 12 63 21 119 2 11 6 31 10 45 3
14 8 39 11 55 2 17 10 48 16 70 5 22 12 47 13 55 2 8 4 15 5 15 1 0 3 11 6 24
7 37 101 311 125 366 13 28 24 59 26 69 2 11 10 27 18 36 8 9 15 23 15 31 0 8
5 20 12 27 7 7 8 12 2 12 -5 0 -5 4 1 8 6 4 28 43 50 87 52 106 209 369 235
395 3 3 21 28 39 55 19 28 38 52 41 55 3 3 21 25 40 50 19 25 39 50 45 56 5 6
28 33 50 60 51 63 269 282 357 358 37 33 103 86 145 118 43 32 86 65 96 73 9
8 17 11 17 7 0 -4 5 1 11 11 5 9 17 17 24 17 8 0 15 5 15 10 0 6 7 10 15 10 8
0 15 5 15 10 0 6 5 10 10 10 6 0 16 5 23 10 21 19 121 80 139 86 10 3 18 10
18 15 0 5 3 8 8 7 9 -2 46 14 52 23 3 3 64 35 135 69 72 34 142 68 157 76 14
8 31 14 38 14 6 0 35 11 63 24 63 28 333 115 375 121 17 2 41 9 54 16 12 7 24
11 26 10 2 -2 63 7 92 14 68 16 115 24 170 31 79 9 117 14 147 19 17 3 80 8
140 11 59 3 109 6 110 7 1 2 85 0 103 -2z"/>
</g>
</svg>
